# AST/ASF file generated using VICON BodyLanguage
# -----------------------------------------------
:version 1.10
:name VICON
:units
  mass 1.0
  length 0.45
  angle deg
:documentation
   .ast/.asf automatically generated from VICON data using
   VICON BodyBuilder and BodyLanguage model FoxedUp or BRILLIANT.MOD
:root
   order TX TY TZ RX RY RZ
   axis XYZ
   position 0 0 0  
   orientation 0 0 0 
:bonedata
  begin
     id 1 
     name lhipjoint
     direction 0.558404 -0.748506 0.357664 
     length 2.4234 
     axis 0 0 0  XYZ
  end
  begin
     id 2 
     name lfemur
     direction 0.34202 -0.939693 0  
     length 7.14567  
     axis 0 0 20  XYZ
    dof rx ry rz
    limits (-160.0 20.0)
           (-70.0 70.0)
           (-60.0 70.0)
  end
  begin
     id 3 
     name ltibia
     direction 0.34202 -0.939693 0   
     length 8.13956   
     axis 0 0 20   XYZ
    dof rx
    limits (-10.0 170.0)
  end
  begin
     id 4 
     name lfoot
     direction 0.0791314 -0.217412 0.972867   
     length 2.00134   
     axis -90 7.62852e-016 20   XYZ
    dof rx rz
    limits (-45.0 90.0)
           (-70.0 20.0)
  end
  begin
     id 5 
     name ltoes
     direction 1.53547e-011 -4.21922e-011 1   
     length 1.00735   
     axis -90 7.62852e-016 20   XYZ
    dof rx
    limits (-90.0 20.0)
  end
  begin
     id 6 
     name rhipjoint
     direction -0.496392 -0.78327 0.374276   
     length 2.31584  
     axis 0 0 0  XYZ 
  end
  begin
     id 7 
     name rfemur
     direction -0.34202 -0.939693 0   
     length 7.47417   
     axis 0 0 -20   XYZ
    dof rx ry rz
    limits (-160.0 20.0)
           (-70.0 70.0)
           (-70.0 60.0)
  end
  begin
     id 8 
     name rtibia
     direction -0.34202 -0.939693 0   
     length 7.69071   
     axis 0 0 -20   XYZ
    dof rx
    limits (-10.0 170.0)
 end
 begin
     id 9 
     name rfoot
     direction -0.103069 -0.28318 0.953512   
     length 2.16135  
     axis -90 -7.62852e-016 -20   XYZ
    dof rx rz
    limits (-45.0 90.0)
           (-20.0 70.0)
  end
  begin
     id 10 
     name rtoes
     direction -1.53581e-011 -4.21904e-011 1   
     length 1.07867   
     axis -90 -7.62852e-016 -20   XYZ
    dof rx
    limits (-90.0 20.0)
  end
  begin
     id 11 
     name lowerback
     direction -0.0258961 0.994776 -0.0987407   
     length 2.19412   
     axis 0 0 0   XYZ
    dof rx ry rz
    limits (-20.0 45.0)
           (-30.0 30.0)
           (-30.0 30.0)
  end
  begin
     id 12 
     name upperback
     direction 0.0402454 0.999185 0.00320666   
     length 2.18445   
     axis 0 0 0   XYZ
    dof rx ry rz
    limits (-20.0 45.0)
           (-30.0 30.0)
           (-30.0 30.0)
  end
  begin
     id 13 
     name thorax
     direction 0.0519376 0.997415 0.0496558   
     length 2.21487   
     axis 0 0 0   XYZ
    dof rx ry rz
    limits (-20.0 45.0)
           (-30.0 30.0)
           (-30.0 30.0)
  end
  begin
     id 14 
     name lowerneck
     direction -0.0921276 0.983211 0.157506   
     length 1.61201   
     axis 0 0 0   XYZ
    dof rx ry rz
    limits (-20.0 45.0)
           (-30.0 30.0)
           (-30.0 30.0)
  end
  begin
     id 15 
     name upperneck
     direction 0.0820814 0.98162 -0.172292   
     length 1.65275   
     axis 0 0 0   XYZ
    dof rx ry rz
    limits (-20.0 45.0)
           (-30.0 30.0)
           (-30.0 30.0)
  end
  begin
     id 16
     name head
     direction 0.0336554 0.996413 -0.0776455  
     length 1.66415  
     axis 0 0 0   XYZ
    dof rx ry rz
    limits (-20.0 45.0)
           (-30.0 30.0)
           (-30.0 30.0)
  end
  begin
     id 17 
     name lclavicle
     direction 0.94696 0.284418 -0.149576  
     length 3.41447  
     axis 0 0 0   XYZ
    dof ry rz
    limits (-20.0 10.0)
           (0.0 20.0)
  end
  begin
     id 18 
     name lhumerus
     direction 1 -0.000130264 -9.81312e-005   
     length 5.19964   
     axis 180 -30 -90   XYZ
    dof rx ry rz
    limits (-60.0 90.0)
           (-90.0 90.0)
           (-90.0 90.0)
  end
  begin
     id 19
     name lradius
     direction 1 -4.48961e-011 1.43854e-026   
     length 3.32189   
     axis 180 -30 -90   XYZ
    dof rx
    limits (-10.0 170.0)
  end
  begin
     id 20
     name lwrist
     direction 1 -4.48958e-011 3.1502e-026   
     length 1.66095   
     axis -1.97692e-014 90 90   XYZ
    dof ry
    limits (-180.0 0.0)
 end
  begin
     id 21 
     name lhand
     direction 1 -4.48927e-011 6.3004e-026   
     length 0.645616   
     axis -4.02019e-014 90 90   XYZ
    dof rx rz
    limits (-90.0 90.0)
           (-45.0 45.0)
  end
  begin
     id 22 
     name lfingers
     direction 1 -4.4904e-011 1.26008e-025   
     length 0.520512   
     axis -8.04039e-014 90 90   XYZ
    dof rx
    limits (0.0 90.0)
  end
  begin
     id 23
     name lthumb
     direction 0.707107 -6.34947e-011 0.707107   
     length 0.747354   
     axis -90 45 2.85299e-015   XYZ
    dof rx rz
    limits (-45.0 45.0)
           (-45.0 45.0)
  end
  begin
     id 24 
     name rclavicle
     direction -0.909391 0.383475 -0.161107   
     length 3.25176  
     axis 0 0 0   XYZ 
    dof ry rz
    limits (-10.0 20.0)
           (-20.0 0.0)
  end
  begin
     id 25 
     name rhumerus
     direction -1 -4.48965e-011 -1.81384e-027  
     length 5.6595   
     axis 180 30 90   XYZ
    dof rx ry rz
    limits (-90.0 60.0)
           (-90.0 90.0)
           (-90.0 90.0)
  end
  begin
     id 26 
     name rradius
     direction -1 -4.48996e-011 -8.09397e-027   
     length 3.37604   
     axis 180 30 90   XYZ
    dof rx
    limits (-10.0 170.0)
  end
  begin
     id 27 
     name rwrist
     direction -1 -4.48927e-011 -1.56669e-026   
     length 1.68802   
     axis 1.21142e-014 -90 -90   XYZ
    dof ry
    limits (-180.0 0.0)
  end
  begin
     id 28
     name rhand
     direction -1 -4.48912e-011 -3.13339e-026   
     length 0.824702   
     axis 1.99937e-014 -90 -90   XYZ
    dof rx rz
    limits (-90.0 90.0)
           (-45.0 45.0)
  end
  begin
     id 29
     name rfingers
     direction -1 -4.49011e-011 -6.26677e-026   
     length 0.664896   
     axis 3.99874e-014 -90 -90   XYZ
    dof rx
    limits (0.0 90.0)
  end
  begin
     id 30
     name rthumb
     direction -0.707107 -6.34931e-011 0.707107   
     length 0.954662   
     axis -90 -45 -2.85299e-015   XYZ
    dof rx rz
    limits (-45.0 45.0)
           (-45.0 45.0)
  end
:hierarchy
  begin
    root lhipjoint rhipjoint lowerback
    lhipjoint lfemur
    lfemur ltibia
    ltibia lfoot
    lfoot ltoes
    rhipjoint rfemur
    rfemur rtibia
    rtibia rfoot
    rfoot rtoes
    lowerback upperback
    upperback thorax
    thorax lowerneck lclavicle rclavicle
    lowerneck upperneck
    upperneck head
    lclavicle lhumerus
    lhumerus lradius
    lradius lwrist
    lwrist lhand lthumb
    lhand lfingers
    rclavicle rhumerus
    rhumerus rradius
    rradius rwrist
    rwrist rhand rthumb
    rhand rfingers
  end

#!OML:ASF F:\VICON\USERDATA\INSTALL\rory3\rory3.ASF
:FULLY-SPECIFIED
:DEGREES
277
root 8.11883 16.7538 -14.4133 23.7365 -47.7045 -12.522
lowerback 9.21218 -2.16482 -4.40555
upperback 1.49096 -3.19308 4.23654
thorax -3.12061 -1.55325 7.31114
lowerneck -12.1811 1.2933 -8.9692
upperneck 26.0968 0.289358 12.1604
head 10.2055 0.497861 5.94499
rclavicle 3.79679e-014 3.97569e-015
rhumerus -34.2546 -13.2553 -72.0863
rradius 45.2061
rwrist -19.6321
rhand -15.0566 18.6542
rfingers 7.12502
rthumb 11.1102 -11.0317
lclavicle 3.79679e-014 3.97569e-015
lhumerus -13.0021 33.8937 66.9224
lradius 24.6119
lwrist -11.8693
lhand -5.63382 34.5942
lfingers 7.12502
lthumb 20.1843 63.5655
rfemur -43.508 1.27802 24.1006
rtibia 65.4387
rfoot -21.9236 -4.41599
rtoes 6.33479
lfemur -8.70328 2.00291 -21.0832
ltibia 38.2251
lfoot -37.6287 21.2558
ltoes -3.04249
278
root 8.03621 16.7148 -14.3412 24.3474 -47.2656 -12.8629
lowerback 9.31725 -2.15477 -4.41094
upperback 1.31151 -3.17286 4.5178
thorax -3.35358 -1.52968 7.62945
lowerneck -10.8428 1.32887 -9.90521
upperneck 24.884 0.347039 12.9427
head 9.48439 0.49872 6.3039
rclavicle -7.71285e-014 4.69132e-014
rhumerus -33.8076 -13.1113 -71.941
rradius 45.2556
rwrist -19.1904
rhand -15.159 18.6736
rfingers 7.12502
rthumb 11.0114 -11.0176
lclavicle -7.71285e-014 4.69132e-014
lhumerus -13.2648 34.488 66.1809
lradius 24.6908
lwrist -11.9478
lhand -6.23665 34.2296
lfingers 7.12502
lthumb 19.6048 63.2611
rfemur -43.7532 1.59131 24.4196
rtibia 66.0507
rfoot -22.2385 -5.06946
rtoes 4.58842
lfemur -9.34795 2.27872 -20.4627
ltibia 39.547
lfoot -37.1502 20.6366
ltoes -5.24239
279
root 7.96331 16.6659 -14.2326 23.9784 -46.9397 -12.8373
lowerback 9.7614 -2.08467 -4.06208
upperback 1.50625 -3.05963 4.48335
thorax -3.43547 -1.48025 7.39814
lowerneck -8.6888 1.18356 -11.3563
upperneck 22.4252 0.136333 14.3438
head 8.23211 0.37248 6.86806
rclavicle 1.39149e-015 -1.35174e-014
rhumerus -33.1999 -13.2361 -71.8709
rradius 45.3531
rwrist -18.7306
rhand -15.3438 18.4927
rfingers 7.12502
rthumb 10.8332 -11.2079
lclavicle 1.39149e-015 -1.35174e-014
lhumerus -12.9875 34.859 65.5367
lradius 24.6574
lwrist -12.3173
lhand -5.7513 35.3323
lfingers 7.12502
lthumb 20.0714 64.3155
rfemur -43.1587 1.7136 24.2096
rtibia 66.6706
rfoot -22.747 -4.96011
rtoes 4.36582
lfemur -9.26644 1.99952 -20.414
ltibia 41.1019
lfoot -36.5767 20.8799
ltoes -8.11739
280
root 7.89314 16.6126 -14.1234 23.0633 -47.0791 -12.0734
lowerback 10.192 -1.87031 -4.38861
upperback 1.72598 -2.82941 4.26082
thorax -3.4751 -1.36616 7.33806
lowerneck -10.6511 0.942847 -10.2924
upperneck 24.2006 -0.145217 13.2926
head 9.27226 0.276604 6.41401
rclavicle 1.59028e-014 -1.59028e-014
rhumerus -32.5898 -13.1569 -71.8124
rradius 45.4788
rwrist -18.4758
rhand -15.514 18.4832
rfingers 7.12502
rthumb 10.669 -11.2259
lclavicle 1.59028e-014 -1.59028e-014
lhumerus -12.5724 35.3207 64.9506
lradius 24.4974
lwrist -12.8812
lhand -5.00628 36.5502
lfingers 7.12502
lthumb 20.7874 65.4567
rfemur -42.5667 2.0261 23.1465
rtibia 67.3832
rfoot -23.3646 -3.69905
rtoes 9.52561
lfemur -9.3076 1.91856 -21.102
ltibia 42.9304
lfoot -36.07 20.848
ltoes -10.0818
281
root 7.81802 16.5753 -14.0248 23.4364 -46.6769 -12.6897
lowerback 10.5966 -1.80108 -3.92313
upperback 1.76668 -2.69203 4.45205
thorax -3.69115 -1.2974 7.28078
lowerneck -13.3658 0.56518 -8.96469
upperneck 26.5301 -0.666132 12.1132
head 10.7308 0.0865815 5.87629
rclavicle 8.15017e-015 5.1684e-014
rhumerus -31.9383 -12.796 -71.8031
rradius 45.5066
rwrist -18.4689
rhand -15.6758 18.7698
rfingers 7.12502
rthumb 10.5129 -10.9473
lclavicle 8.15017e-015 5.1684e-014
lhumerus -12.6092 35.6986 64.2248
lradius 24.4966
lwrist -12.5684
lhand -5.62577 35.7854
lfingers 7.12502
lthumb 20.1921 64.756
rfemur -42.3139 2.13326 23.6349
rtibia 67.9089
rfoot -23.3966 -4.62065
rtoes 4.4875
lfemur -9.89123 2.29997 -20.3892
ltibia 45.0509
lfoot -35.4028 19.9028
ltoes -10.8232
